<svg width="36" height="36" viewBox="0 0 36 36" fill="none" xmlns="http://www.w3.org/2000/svg">
<g clip-path="url(#clip0_6611_1360)">
<path d="M36 0H0V36H36V0Z" fill="#162138"/>
<path d="M25.7206 4.81002H26.521C29.0996 4.81002 31.19 6.90041 31.19 9.47904V10.2794C31.19 10.4912 31.3617 10.663 31.5735 10.663C31.7853 10.663 31.957 10.4912 31.957 10.2794V9.37899C31.957 6.43184 29.5682 4.04297 26.621 4.04297H25.7206C25.5088 4.04297 25.337 4.21472 25.337 4.4265C25.337 4.63827 25.5088 4.81002 25.7206 4.81002Z" fill="white" stroke="white" stroke-width="0.5"/>
<path d="M4.81002 10.2794V9.47904C4.81002 6.90041 6.90041 4.81002 9.47904 4.81002H10.2794C10.4912 4.81002 10.663 4.63827 10.663 4.4265C10.663 4.21472 10.4912 4.04297 10.2794 4.04297H9.37899C6.43184 4.04297 4.04297 6.43184 4.04297 9.37899V10.2794C4.04297 10.4912 4.21472 10.663 4.4265 10.663C4.63827 10.663 4.81002 10.4912 4.81002 10.2794Z" fill="white" stroke="white" stroke-width="0.5"/>
<path d="M10.2794 31.19H9.47904C6.90041 31.19 4.81002 29.0996 4.81002 26.521V25.7206C4.81002 25.5088 4.63827 25.337 4.4265 25.337C4.21472 25.337 4.04297 25.5088 4.04297 25.7206V26.621C4.04297 29.5682 6.43184 31.957 9.37899 31.957H10.2794C10.4912 31.957 10.663 31.7853 10.663 31.5735C10.663 31.3617 10.4912 31.19 10.2794 31.19Z" fill="white" stroke="white" stroke-width="0.5"/>
<path d="M31.19 25.7206V26.521C31.19 29.0996 29.0996 31.19 26.521 31.19H25.7206C25.5088 31.19 25.337 31.3617 25.337 31.5735C25.337 31.7853 25.5088 31.957 25.7206 31.957H26.621C29.5682 31.957 31.957 29.5682 31.957 26.621V25.7206C31.957 25.5088 31.7853 25.337 31.5735 25.337C31.3617 25.337 31.19 25.5088 31.19 25.7206Z" fill="white" stroke="white" stroke-width="0.5"/>
<path d="M30.0586 12.6852V23.3151C30.0586 24.0107 29.4951 24.5742 28.8004 24.5742H7.19992C6.50483 24.5742 5.94171 24.0104 5.94171 23.3151V12.7591C5.94171 12.0226 6.53814 11.4258 7.27408 11.4258H28.8004C29.4951 11.4258 30.0586 11.9896 30.0586 12.6852Z" fill="#C1DB9A"/>
<path d="M5.94141 12.6145V23.3855C5.94141 24.0418 6.4731 24.5742 7.12923 24.5742H28.8708C29.5266 24.5742 30.0586 24.0421 30.0586 23.3855V12.6145C30.0586 11.9582 29.5269 11.4258 28.8708 11.4258H7.12923C6.47341 11.4258 5.94141 11.9579 5.94141 12.6145ZM28.6071 23.3525H7.39287V12.6475H28.6071V23.3525Z" fill="#618758"/>
<path d="M30.0586 12.5097V16.1148C29.5524 16.1148 29.0643 16.0346 28.6071 15.8855C27.1107 15.3984 25.9449 14.1773 25.5339 12.6475C25.4289 12.2578 25.373 11.8487 25.373 11.4261H28.9754C29.5737 11.4258 30.0586 11.911 30.0586 12.5097Z" fill="#618758"/>
<path d="M30.0586 23.4116V19.6465C29.262 19.6465 28.5103 19.839 27.847 20.1799C26.7509 20.7434 25.8974 21.7135 25.4848 22.8906C25.3089 23.3931 25.213 23.9333 25.213 24.4959H28.9757C29.5737 24.4956 30.0586 24.0104 30.0586 23.4116Z" fill="#618758"/>
<path d="M5.94141 23.4902V19.7248C6.738 19.7248 7.48966 19.9173 8.15302 20.2582C9.24908 20.8217 10.1026 21.7918 10.5151 22.9689C10.6911 23.4714 10.787 24.0116 10.787 24.5742H7.02459C6.42628 24.5742 5.94141 24.089 5.94141 23.4902Z" fill="#618758"/>
<path d="M5.94141 12.5097V16.2752C6.738 16.2752 7.48966 16.0827 8.15302 15.7418C9.24908 15.1783 10.1026 14.2082 10.5151 13.0311C10.6911 12.5286 10.787 11.9884 10.787 11.4258H7.02459C6.42628 11.4258 5.94141 11.911 5.94141 12.5097Z" fill="#618758"/>
<path d="M18 22.4918C19.9877 22.4918 21.599 20.4808 21.599 18C21.599 15.5192 19.9877 13.5082 18 13.5082C16.0124 13.5082 14.4011 15.5192 14.4011 18C14.4011 20.4808 16.0124 22.4918 18 22.4918Z" fill="#618758"/>
<path d="M19.5219 18.344C19.394 18.1777 19.236 18.0525 19.048 17.9689C18.8601 17.8855 18.6229 17.8079 18.3366 17.7349V16.3437C18.6999 16.3953 19.0374 16.5491 19.3494 16.8053L19.6309 16.2028C19.4814 16.0657 19.2979 15.9525 19.0801 15.8626C18.8623 15.7733 18.6288 15.7129 18.3815 15.6833V15.3053C18.3815 15.1248 18.2351 14.9783 18.0547 14.9783C17.8744 14.9783 17.7279 15.1248 17.7279 15.3053V15.6899C17.4589 15.7242 17.2204 15.8044 17.0137 15.9305C16.8063 16.0563 16.6447 16.2145 16.5294 16.4047C16.4141 16.595 16.3566 16.8057 16.3566 17.0365C16.3566 17.3145 16.4226 17.5399 16.5552 17.7129C16.6872 17.8862 16.8518 18.0164 17.0485 18.1041C17.2453 18.1918 17.486 18.272 17.7725 18.3447V19.6783C17.3411 19.6484 16.9395 19.4881 16.5678 19.1972L16.2862 19.8003C16.4697 19.9541 16.6843 20.0755 16.9301 20.1657C17.1755 20.2557 17.442 20.311 17.7276 20.3327V20.7044C17.7276 20.8849 17.874 21.0315 18.0544 21.0315C18.2348 21.0315 18.3812 20.8849 18.3812 20.7044V20.3195C18.7869 20.2598 19.1106 20.1113 19.3522 19.8739C19.5932 19.6365 19.7139 19.345 19.7139 18.9981C19.7139 18.7289 19.6501 18.511 19.5219 18.344ZM17.7725 17.5877C17.5846 17.5239 17.4394 17.4456 17.3367 17.3541C17.2343 17.262 17.183 17.1412 17.183 16.9915C17.183 16.8252 17.2355 16.6858 17.3402 16.5748C17.4448 16.4638 17.5893 16.389 17.7729 16.3506V17.5877H17.7725ZM18.7467 19.4311C18.6524 19.5362 18.516 19.6079 18.3363 19.6462V18.4984C18.516 18.5538 18.6524 18.6226 18.7467 18.7031C18.8403 18.7846 18.8875 18.8918 18.8875 19.0239C18.8878 19.1912 18.8406 19.3267 18.7467 19.4311Z" fill="#C1DB9A"/>
<path d="M36 20.0007H0.0351562V35.9968H36V20.0007Z" fill="url(#paint0_linear_6611_1360)"/>
<path d="M33.0055 20.5112H3.06484C2.7895 20.5112 2.56641 20.2917 2.56641 20.0207V19.947C2.56641 19.676 2.7895 19.4565 3.06484 19.4565H33.0055C33.2808 19.4565 33.5039 19.676 33.5039 19.947V20.0207C33.5039 20.2917 33.2808 20.5112 33.0055 20.5112Z" fill="white"/>
</g>
<defs>
<linearGradient id="paint0_linear_6611_1360" x1="18.0176" y1="19.6079" x2="18.0176" y2="34.186" gradientUnits="userSpaceOnUse">
<stop stop-color="#162138"/>
<stop offset="0.000403041" stop-color="#1B253C" stop-opacity="0.9766"/>
<stop offset="0.000851706" stop-color="#283247" stop-opacity="0.9506"/>
<stop offset="0.00132248" stop-color="#3E475A" stop-opacity="0.9232"/>
<stop offset="0.0018086" stop-color="#5D6575" stop-opacity="0.895"/>
<stop offset="0.00230682" stop-color="#868B97" stop-opacity="0.8661"/>
<stop offset="0.00281481" stop-color="#B7BAC1" stop-opacity="0.8366"/>
<stop offset="0.00332173" stop-color="#F0F1F2" stop-opacity="0.8072"/>
<stop offset="0.00344596" stop-color="white" stop-opacity="0.8"/>
<stop offset="0.6021" stop-color="#727C91" stop-opacity="0.2313"/>
<stop offset="0.8456" stop-color="#374563" stop-opacity="0"/>
</linearGradient>
<clipPath id="clip0_6611_1360">
<rect width="36" height="36" rx="6" fill="white"/>
</clipPath>
</defs>
</svg>
