<svg width="22" height="22" viewBox="0 0 22 22" fill="none" xmlns="http://www.w3.org/2000/svg">
<path d="M11.7928 2.74655C11.4396 2.13775 10.5604 2.13774 10.2071 2.74655L7.71926 7.03408C7.54475 7.33483 7.24312 7.54006 6.89931 7.59199L2.23686 8.2962C1.45376 8.41447 1.17908 9.4032 1.78894 9.90846L5.26227 12.7861C5.58379 13.0525 5.73496 13.4726 5.65686 13.8828L4.74829 18.6542C4.60466 19.4084 5.39647 19.9945 6.07586 19.6367L10.4661 17.3251C10.8003 17.1491 11.1997 17.1491 11.5338 17.3251L15.9241 19.6367C16.6035 19.9945 17.3953 19.4084 17.2517 18.6542L16.3431 13.8828C16.265 13.4726 16.4162 13.0525 16.7377 12.7861L20.211 9.90846C20.8209 9.4032 20.5462 8.41447 19.7631 8.2962L15.1007 7.59199C14.7569 7.54006 14.4552 7.33483 14.2807 7.03409L11.7928 2.74655Z" fill="#162138"/>
</svg>
