<svg width="17" height="20" viewBox="0 0 17 20" fill="none" xmlns="http://www.w3.org/2000/svg">
<path d="M12.4017 0C11.3123 0.0669995 10.0615 0.709338 9.31791 1.52733C8.64609 2.27133 8.11603 3.37629 8.33241 4.44528C9.51636 4.47828 10.7047 3.8193 11.4162 2.98631C12.0805 2.20731 12.5841 1.11999 12.4017 0ZM12.4663 4.44333C10.757 4.44333 10.0423 5.55465 8.85838 5.55465C7.64041 5.55465 6.527 4.51364 5.05297 4.51364C3.0479 4.51464 0 6.48028 0 11.1112C0 15.3242 3.60728 19.9998 5.64352 19.9998C6.88039 20.0128 7.18025 19.1768 8.85838 19.1678C10.5384 19.1548 10.9009 20.0108 12.1397 19.9998C13.5343 19.9888 14.6235 18.3669 15.4191 17.0819C15.9898 16.1619 16.2245 15.6922 16.6667 14.6522C13.3851 13.7722 12.7321 8.17161 16.6667 7.01362C15.924 5.67263 13.7561 4.44333 12.4663 4.44333Z" fill="black"/>
</svg>
